<svg xmlns="http://www.w3.org/2000/svg" xmlns:xlink="http://www.w3.org/1999/xlink" width="500" zoomAndPan="magnify" viewBox="0 0 375 374.999991" height="500" preserveAspectRatio="xMidYMid meet" version="1.0"><defs><filter x="0%" y="0%" width="100%" height="100%" id="58a423e9c2"><feColorMatrix values="0 0 0 0 1 0 0 0 0 1 0 0 0 0 1 0 0 0 1 0" color-interpolation-filters="sRGB"/></filter><mask id="52a06cf31e"><g filter="url(#58a423e9c2)"><rect x="-37.5" width="450" fill="#000000" y="-37.499999" height="449.999989" fill-opacity="0.22"/></g></mask><clipPath id="5c48b2a2ac"><path d="M 0 0.992188 L 375 0.992188 L 375 374 L 0 374 Z M 0 0.992188 " clip-rule="nonzero"/></clipPath><clipPath id="ffee01d3d3"><rect x="0" width="375" y="0" height="374"/></clipPath></defs><g mask="url(#52a06cf31e)"><g transform="matrix(1, 0, 0, 1, 0, 1)"><g clip-path="url(#ffee01d3d3)"><path fill="#693623" d="M 110.101562 224.445312 C 151.046875 293.351562 230.191406 308.832031 259.652344 279.371094 C 289.113281 250.160156 295.105469 187.496094 259.652344 135.5625 C 238.929688 105.105469 212.714844 89.125 187.25 84.382812 C 178.761719 82.882812 147.554688 80.636719 143.558594 90.375 C 141.3125 95.867188 145.054688 104.855469 156.042969 115.339844 C 172.769531 130.820312 180.757812 164.273438 187.5 193.488281 C 194.242188 222.699219 229.945312 233.683594 230.191406 240.425781 C 230.191406 247.164062 206.722656 238.925781 187.75 223.445312 C 169.023438 207.96875 169.273438 154.289062 143.308594 128.824219 C 119.339844 105.355469 103.863281 107.601562 94.625 136.5625 C 86.882812 160.53125 89.878906 190.738281 110.101562 224.695312 Z M 110.101562 224.445312 " fill-opacity="1" fill-rule="evenodd"/><g clip-path="url(#5c48b2a2ac)"><path fill="#000000" d="M 187.5 0.992188 C 239.179688 0.992188 286.117188 21.964844 320.074219 55.917969 C 354.027344 89.875 375 136.8125 375 188.492188 C 375 240.175781 354.027344 287.113281 320.074219 321.066406 C 286.117188 355.019531 239.179688 375.992188 187.5 375.992188 C 135.820312 375.992188 88.882812 355.019531 54.925781 321.066406 C 20.972656 287.113281 0 240.175781 0 188.492188 C 0 136.8125 20.972656 89.875 54.925781 55.917969 C 88.882812 21.964844 135.820312 0.992188 187.5 0.992188 Z M 303.59375 72.398438 C 273.886719 42.6875 232.9375 24.460938 187.5 24.460938 C 142.308594 24.460938 101.113281 42.9375 71.65625 72.398438 C 41.945312 102.109375 23.71875 143.054688 23.71875 188.492188 C 23.71875 233.683594 42.195312 274.878906 71.65625 304.339844 C 101.363281 334.050781 142.308594 352.273438 187.5 352.273438 C 232.691406 352.273438 273.886719 333.800781 303.59375 304.339844 C 333.304688 274.628906 351.53125 233.683594 351.53125 188.492188 C 351.53125 143.304688 333.054688 102.109375 303.59375 72.398438 Z M 303.59375 72.398438 " fill-opacity="1" fill-rule="nonzero"/></g><path fill="#000000" d="M 320.074219 72.398438 L 71.40625 321.066406 L 54.925781 304.339844 L 303.34375 55.917969 Z M 320.074219 72.398438 " fill-opacity="1" fill-rule="nonzero"/></g></g></g><path fill="#128f8b" d="M 79.054688 239.296875 C 66.191406 242.421875 53.183594 234.496094 50.058594 221.632812 C 48.640625 215.796875 51.3125 195.136719 70.328125 154.730469 C 87.695312 117.820312 56.113281 76.253906 22.285156 84.472656 C 12.203125 86.917969 5.492188 94.730469 5.492188 105.894531 C 5.492188 118.84375 16.648438 128.769531 29.257812 127.726562 C 31.304688 129.929688 31.894531 133.195312 30.5625 136.019531 C 20.316406 157.800781 5.492188 189.777344 5.492188 217.890625 C 5.492188 259.382812 46.59375 292.402344 89.425781 282 Z M 79.054688 239.296875 " fill-opacity="1" fill-rule="nonzero"/><path fill="#128f8b" d="M 272.703125 354.101562 C 272.644531 354.160156 272.761719 354.042969 272.703125 354.101562 Z M 272.703125 354.101562 " fill-opacity="1" fill-rule="nonzero"/><path fill="#008080" d="M 272.789062 183.417969 C 264.792969 175.421875 255.835938 169.023438 246.4375 163.742188 C 255.230469 155.550781 264.089844 141.371094 264.089844 125.417969 C 264.089844 94.519531 236.15625 80.117188 219.765625 66.945312 C 213.042969 61.542969 208.691406 53.480469 205.644531 45.097656 L 189.386719 45.097656 L 136.363281 98.117188 L 136.363281 354.859375 L 178.140625 369.507812 L 235.089844 369.507812 C 249.121094 369.507812 262.761719 364 272.703125 354.101562 C 296.253906 330.546875 308.117188 299.585938 308.117188 268.714844 C 308.117188 237.84375 296.34375 206.972656 272.789062 183.417969 Z M 272.789062 183.417969 " fill-opacity="1" fill-rule="nonzero"/><path fill="#128f8b" d="M 205.644531 45.097656 L 168.945312 45.097656 C 166.714844 52.667969 162.84375 60.800781 155.289062 66.933594 C 147.78125 73.03125 137.785156 79.371094 129.1875 87.46875 C 103.515625 111.652344 106.386719 143.21875 128.484375 163.742188 C 91.726562 184.394531 66.882812 223.503906 66.882812 268.714844 C 66.882812 301.652344 80.082031 331.511719 101.488281 353.28125 C 111.691406 363.65625 125.628906 369.507812 140.179688 369.507812 L 178.140625 369.507812 C 155.863281 340.828125 143.640625 305.554688 143.640625 268.714844 C 143.640625 230.972656 156.550781 193.890625 181.699219 163.742188 C 169.929688 153.839844 159.546875 141.707031 159.546875 125.355469 C 159.546875 95.9375 173.945312 81.011719 190.40625 69.785156 C 198.414062 64.320312 207.308594 54.605469 205.644531 45.097656 Z M 205.644531 45.097656 " fill-opacity="1" fill-rule="nonzero"/><path fill="#ff8e9e" d="M 129.636719 214.585938 C 117.90625 214.585938 108.398438 222.128906 108.398438 231.429688 C 108.398438 240.734375 117.90625 248.277344 129.636719 248.277344 C 141.371094 248.277344 150.878906 240.734375 150.878906 231.429688 C 150.878906 222.128906 141.371094 214.585938 129.636719 214.585938 Z M 129.636719 214.585938 " fill-opacity="1" fill-rule="nonzero"/><path fill="#ff8e9e" d="M 245.359375 214.585938 C 233.628906 214.585938 224.121094 222.128906 224.121094 231.429688 C 224.121094 240.734375 233.628906 248.277344 245.359375 248.277344 C 257.089844 248.277344 266.601562 240.734375 266.601562 231.429688 C 266.601562 222.128906 257.089844 214.585938 245.359375 214.585938 Z M 245.359375 214.585938 " fill-opacity="1" fill-rule="nonzero"/><path fill="#128f8b" d="M 214.222656 16.558594 C 207.519531 9.855469 198.925781 6.199219 190.160156 5.582031 L 149.707031 43.285156 L 190.160156 80.984375 C 198.925781 80.371094 207.519531 76.710938 214.222656 70.007812 C 221.601562 62.628906 225.292969 52.957031 225.292969 43.285156 C 225.292969 33.613281 221.601562 23.941406 214.222656 16.558594 Z M 214.222656 16.558594 " fill-opacity="1" fill-rule="nonzero"/><path fill="#128f8b" d="M 173.757812 43.285156 C 173.757812 29.394531 179.335938 15.683594 190.160156 5.582031 C 189.273438 5.523438 188.386719 5.492188 187.5 5.492188 C 166.636719 5.492188 149.707031 22.394531 149.707031 43.285156 C 149.707031 64.148438 166.609375 81.074219 187.5 81.074219 C 188.386719 81.074219 189.273438 81.046875 190.160156 80.984375 C 179.652344 71.183594 173.757812 57.613281 173.757812 43.285156 Z M 173.757812 43.285156 " fill-opacity="1" fill-rule="nonzero"/><path fill="#128f8b" d="M 314.828125 261.375 C 310.609375 261.375 306.390625 259.765625 303.175781 256.550781 C 286.519531 239.894531 285.089844 213.519531 299.84375 195.199219 C 326.90625 161.605469 336.546875 140.28125 336.546875 131.523438 C 336.546875 115.257812 323.3125 102.023438 307.046875 102.023438 C 295.851562 102.023438 286.742188 111.132812 286.742188 122.328125 C 286.742188 131.429688 279.367188 138.808594 270.261719 138.808594 C 261.160156 138.808594 253.785156 131.429688 253.785156 122.328125 C 253.785156 92.957031 277.679688 69.066406 307.046875 69.066406 C 341.488281 69.066406 369.507812 97.085938 369.507812 131.523438 C 369.507812 143.71875 364.222656 158.496094 353.351562 176.691406 C 346.265625 188.554688 336.898438 201.734375 325.511719 215.875 C 321.339844 221.050781 321.753906 228.519531 326.476562 233.242188 C 332.914062 239.675781 332.914062 250.113281 326.480469 256.546875 C 323.261719 259.765625 319.042969 261.375 314.828125 261.375 Z M 314.828125 261.375 " fill-opacity="1" fill-rule="nonzero"/><path fill="#000000" d="M 142.023438 200.578125 C 138.988281 200.578125 136.527344 203.039062 136.527344 206.070312 L 136.527344 214.859375 C 136.527344 217.894531 138.988281 220.355469 142.023438 220.355469 C 145.054688 220.355469 147.515625 217.894531 147.515625 214.859375 L 147.515625 206.070312 C 147.515625 203.039062 145.054688 200.578125 142.023438 200.578125 Z M 142.023438 200.578125 " fill-opacity="1" fill-rule="nonzero"/><path fill="#000000" d="M 233.574219 200.578125 C 230.539062 200.578125 228.082031 203.039062 228.082031 206.070312 L 228.082031 214.859375 C 228.082031 217.894531 230.539062 220.355469 233.574219 220.355469 C 236.609375 220.355469 239.066406 217.894531 239.066406 214.859375 L 239.066406 206.070312 C 239.066406 203.039062 236.609375 200.578125 233.574219 200.578125 Z M 233.574219 200.578125 " fill-opacity="1" fill-rule="nonzero"/><path fill="#000000" d="M 202.734375 210.445312 C 200.445312 208.449219 196.976562 208.6875 194.984375 210.976562 C 190.789062 215.789062 183.339844 215.785156 179.148438 210.976562 C 177.152344 208.6875 173.683594 208.453125 171.398438 210.445312 C 169.109375 212.4375 168.875 215.90625 170.863281 218.195312 C 179.453125 228.046875 194.71875 228.003906 203.265625 218.195312 C 205.257812 215.90625 205.019531 212.4375 202.734375 210.445312 Z M 202.734375 210.445312 " fill-opacity="1" fill-rule="nonzero"/><path fill="#000000" d="M 375 131.527344 C 375 112.804688 367.351562 95.15625 353.875 82.324219 C 351.699219 80.257812 348.238281 80.285156 346.113281 82.515625 C 344.023438 84.710938 344.105469 88.191406 346.304688 90.277344 C 357.722656 101.167969 364.011719 115.808594 364.011719 131.527344 C 364.113281 156.496094 337.03125 192.8125 321.234375 212.429688 C 315.363281 219.707031 315.824219 230.359375 322.59375 237.128906 C 330.085938 244.644531 323.539062 257.578125 312.941406 255.695312 C 311.191406 238.84375 306.238281 222.925781 298.304688 208.414062 C 299.773438 204.90625 301.71875 201.625 304.121094 198.640625 C 315.492188 184.523438 341.953125 149.5625 342.039062 131.527344 C 342.039062 112.175781 326.320312 96.535156 307.046875 96.535156 C 292.847656 96.535156 281.265625 108.023438 281.25 122.328125 C 281.214844 129.386719 275.003906 133.992188 268.941406 133.25 C 270.640625 122.339844 268.921875 111.570312 263.933594 101.796875 C 275.617188 77.300781 304.0625 68.09375 329.691406 79.257812 C 332.492188 80.464844 335.714844 79.179688 336.921875 76.414062 C 338.128906 73.628906 336.855469 70.394531 334.078125 69.179688 L 334.070312 69.179688 C 305.453125 56.730469 273.277344 65.371094 257.105469 91.433594 C 247.207031 79.261719 233.460938 70.65625 225.308594 64.351562 C 228.796875 58.113281 230.785156 50.9375 230.785156 43.285156 C 230.785156 19.347656 211.375 0 187.5 0 C 163.644531 0 144.214844 19.308594 144.214844 43.285156 C 144.214844 50.523438 146 57.75 149.699219 64.367188 C 143.191406 69.410156 133.5625 75.804688 125.417969 83.472656 C 99.875 107.535156 99.71875 139.578125 119.722656 162.582031 C 93.699219 179.121094 75.023438 204.019531 66.515625 233.128906 C 59.59375 230.332031 55.222656 223.59375 55.222656 218.210938 C 55.21875 216.066406 55.589844 209.78125 59.1875 197.753906 C 69.828125 161.925781 80.742188 154.851562 80.742188 132.933594 C 80.710938 103.425781 57.71875 77.949219 30.988281 77.921875 C 11.132812 77.921875 -0.0351562 90.316406 0 105.894531 C 0 120.582031 11.542969 132.359375 25.738281 133.242188 C 25.109375 136.386719 0.0390625 180.980469 0 217.886719 C 0 226.148438 1.492188 234.28125 4.4375 242.058594 C 7.257812 249.515625 11.335938 256.457031 16.558594 262.691406 C 18.503906 265.027344 21.976562 265.316406 24.296875 263.378906 C 26.640625 261.402344 26.910156 257.945312 24.976562 255.636719 C 15.828125 244.695312 10.984375 231.644531 10.984375 217.886719 C 10.953125 191.761719 24.585938 161.621094 35.53125 138.363281 C 36.71875 135.835938 37.117188 132.933594 36.421875 129.914062 C 40.898438 126.898438 38.746094 119.867188 33.347656 119.867188 C 31.542969 119.867188 30.734375 120.535156 27.671875 122.300781 C 18.601562 122.4375 11 115.140625 10.984375 105.894531 C 11.023438 94.398438 19.433594 88.914062 31.023438 88.914062 C 51.464844 88.914062 69.769531 109.476562 69.753906 132.933594 C 69.734375 151.679688 59.554688 157.992188 48.652344 194.617188 C 45.738281 204.441406 44.257812 212.378906 44.238281 218.210938 C 44.277344 228.398438 51.722656 239.722656 63.875 243.867188 C 61.644531 255.039062 60.933594 266.265625 61.65625 277.300781 C 54.113281 275.835938 46.796875 272.972656 40.195312 268.847656 C 37.585938 267.242188 34.226562 268.023438 32.621094 270.605469 C 31.046875 273.117188 31.75 276.53125 34.378906 278.171875 C 43.160156 283.636719 52.8125 287.191406 62.921875 288.664062 C 66.949219 314.226562 78.824219 338.070312 97.574219 357.132812 C 108.738281 368.488281 124.269531 375 140.179688 375 L 235.089844 375 C 250.605469 375 265.726562 368.800781 276.585938 357.984375 C 301.113281 333.457031 314.183594 300.890625 313.609375 266.828125 C 333.570312 267.980469 344.65625 243.648438 330.367188 229.359375 C 327.664062 226.65625 327.347656 222.363281 329.789062 219.324219 C 347.734375 197.042969 374.90625 160.140625 375 131.527344 Z M 292.234375 122.328125 C 292.25 114.175781 298.894531 107.535156 307.046875 107.519531 C 320.304688 107.519531 331.054688 118.296875 331.054688 131.527344 C 331.070312 132.722656 330.660156 135.210938 329.4375 138.609375 C 327.363281 144.542969 319.90625 161.578125 295.570312 191.753906 C 294.101562 193.574219 292.773438 195.488281 291.574219 197.472656 C 282.082031 183.71875 269.785156 171.839844 255.167969 162.5625 C 259.957031 156.960938 263.695312 150.613281 266.160156 143.925781 C 279.4375 146.472656 292.253906 136.296875 292.234375 122.328125 Z M 187.5 10.984375 C 205.023438 10.984375 219.785156 25.113281 219.800781 43.285156 C 219.78125 60.773438 205.738281 75.585938 187.5 75.585938 C 169.195312 75.585938 155.199219 60.6875 155.199219 43.285156 C 155.199219 25.398438 169.6875 10.984375 187.5 10.984375 Z M 268.824219 350.207031 C 260.015625 358.980469 247.71875 364.011719 235.089844 364.011719 L 140.179688 364.011719 C 127.195312 364.011719 114.519531 358.699219 105.40625 349.433594 C 52.894531 296.035156 64.332031 207.128906 129.964844 169.234375 L 143.128906 169.234375 C 146.164062 169.234375 148.625 166.773438 148.625 163.738281 C 148.625 160.714844 146.164062 158.246094 143.128906 158.246094 L 130.707031 158.246094 C 111.84375 139.402344 110.691406 112.441406 132.953125 91.46875 C 140.421875 84.433594 149.703125 78.246094 156.242188 73.195312 C 164.621094 81.9375 175.863281 86.570312 187.5 86.570312 C 198.917969 86.570312 210.238281 82.097656 218.769531 73.179688 C 228.753906 80.867188 244.925781 90.726562 253.0625 104.777344 C 262.925781 121.816406 259.332031 143.054688 244.21875 158.246094 L 165.101562 158.246094 C 162.070312 158.246094 159.609375 160.714844 159.609375 163.738281 C 159.609375 166.773438 162.070312 169.234375 165.101562 169.234375 L 244.957031 169.234375 C 311.351562 207.566406 321.964844 297.0625 268.824219 350.207031 Z M 268.824219 350.207031 " fill-opacity="1" fill-rule="nonzero"/></svg>